<mxfile host="app.diagrams.net" modified="2024-05-03T04:40:24.178Z" agent="Mozilla/5.0 (Windows NT 10.0; Win64; x64) AppleWebKit/537.36 (KHTML, like Gecko) Chrome/124.0.0.0 Safari/537.36" etag="KQHA8dg14oM2Mhs_0_8I" version="24.3.1" type="google">
  <diagram name="Página-1" id="CpFKLri8Z3fInFOazw5h">
    <mxGraphModel grid="1" page="1" gridSize="10" guides="1" tooltips="1" connect="1" arrows="1" fold="1" pageScale="1" pageWidth="827" pageHeight="1169" math="0" shadow="0">
      <root>
        <mxCell id="0" />
        <mxCell id="1" parent="0" />
        <mxCell id="5tU-Mg-0CsLQWl1p9Fwi-1" value="&lt;span id=&quot;docs-internal-guid-e1d2402a-7fff-25b7-3ad7-b1268df02f55&quot;&gt;&lt;span style=&quot;font-size: 9pt; font-family: &amp;quot;Century Gothic&amp;quot;, sans-serif; background-color: transparent; font-variant-numeric: normal; font-variant-east-asian: normal; font-variant-alternates: normal; font-variant-position: normal; vertical-align: baseline; white-space-collapse: preserve;&quot;&gt;Temporizador&lt;/span&gt;&lt;/span&gt;" style="swimlane;childLayout=stackLayout;horizontal=1;startSize=50;horizontalStack=0;rounded=1;fontSize=14;fontStyle=0;strokeWidth=2;resizeParent=0;resizeLast=1;shadow=0;dashed=0;align=center;arcSize=4;whiteSpace=wrap;html=1;" vertex="1" parent="1">
          <mxGeometry x="280" y="130" width="160" height="150" as="geometry" />
        </mxCell>
        <mxCell id="5tU-Mg-0CsLQWl1p9Fwi-2" value="&lt;b&gt;temporizador_ID&lt;/b&gt;&lt;div&gt;temporizador_Tiempo_Inicio&lt;/div&gt;&lt;div&gt;temporizador_Tiempo_Stop&lt;br&gt;temporizador_Estado&lt;br&gt;&lt;/div&gt;&lt;div&gt;&lt;i&gt;Usuario_ID&lt;/i&gt;&lt;br&gt;&lt;/div&gt;&lt;div&gt;&lt;i&gt;Auditoria_ID&lt;br&gt;&lt;/i&gt;&lt;/div&gt;" style="align=left;strokeColor=none;fillColor=none;spacingLeft=4;fontSize=12;verticalAlign=top;resizable=0;rotatable=0;part=1;html=1;" vertex="1" parent="5tU-Mg-0CsLQWl1p9Fwi-1">
          <mxGeometry y="50" width="160" height="100" as="geometry" />
        </mxCell>
        <mxCell id="5tU-Mg-0CsLQWl1p9Fwi-3" value="&lt;span id=&quot;docs-internal-guid-e1d2402a-7fff-25b7-3ad7-b1268df02f55&quot;&gt;&lt;span style=&quot;font-size: 9pt; font-family: &amp;quot;Century Gothic&amp;quot;, sans-serif; background-color: transparent; font-variant-numeric: normal; font-variant-east-asian: normal; font-variant-alternates: normal; font-variant-position: normal; vertical-align: baseline; white-space-collapse: preserve;&quot;&gt;Alarma&lt;/span&gt;&lt;/span&gt;" style="swimlane;childLayout=stackLayout;horizontal=1;startSize=50;horizontalStack=0;rounded=1;fontSize=14;fontStyle=0;strokeWidth=2;resizeParent=0;resizeLast=1;shadow=0;dashed=0;align=center;arcSize=4;whiteSpace=wrap;html=1;" vertex="1" parent="1">
          <mxGeometry x="280" y="310" width="160" height="160" as="geometry" />
        </mxCell>
        <mxCell id="5tU-Mg-0CsLQWl1p9Fwi-4" value="&lt;b&gt;Alarma_ID&lt;/b&gt;&lt;div&gt;Alarma_Fecha_Creacion&lt;/div&gt;&lt;div&gt;Alarma_Fecha_Programada&lt;/div&gt;&lt;div&gt;Alarma_Hora_Programada&lt;/div&gt;&lt;div&gt;Alarma_Estado&lt;/div&gt;&lt;div&gt;&lt;i style=&quot;&quot;&gt;Usuario_ID&lt;br&gt;&lt;/i&gt;&lt;i&gt;Auditoria_ID&lt;/i&gt;&lt;br&gt;&lt;/div&gt;" style="align=left;strokeColor=none;fillColor=none;spacingLeft=4;fontSize=12;verticalAlign=top;resizable=0;rotatable=0;part=1;html=1;" vertex="1" parent="5tU-Mg-0CsLQWl1p9Fwi-3">
          <mxGeometry y="50" width="160" height="110" as="geometry" />
        </mxCell>
        <mxCell id="5tU-Mg-0CsLQWl1p9Fwi-5" value="&lt;span id=&quot;docs-internal-guid-e1d2402a-7fff-25b7-3ad7-b1268df02f55&quot;&gt;&lt;span style=&quot;font-size: 9pt; font-family: &amp;quot;Century Gothic&amp;quot;, sans-serif; background-color: transparent; font-variant-numeric: normal; font-variant-east-asian: normal; font-variant-alternates: normal; font-variant-position: normal; vertical-align: baseline; white-space-collapse: preserve;&quot;&gt;Temporizador Pomodoro&lt;/span&gt;&lt;/span&gt;" style="swimlane;childLayout=stackLayout;horizontal=1;startSize=50;horizontalStack=0;rounded=1;fontSize=14;fontStyle=0;strokeWidth=2;resizeParent=0;resizeLast=1;shadow=0;dashed=0;align=center;arcSize=4;whiteSpace=wrap;html=1;" vertex="1" parent="1">
          <mxGeometry x="260" y="500" width="230" height="150" as="geometry" />
        </mxCell>
        <mxCell id="5tU-Mg-0CsLQWl1p9Fwi-6" value="&lt;b&gt;temPom_ID&lt;/b&gt;&lt;br&gt;temPom_Duración_trabajo&lt;br&gt;temPom_Duración_descanso&lt;div&gt;temPom_Estado&lt;br&gt;&lt;i&gt;Usuario_ID&lt;/i&gt;&lt;br&gt;&lt;/div&gt;&lt;div&gt;&lt;i&gt;Auditoria_ID&lt;br&gt;&lt;/i&gt;&lt;/div&gt;" style="align=left;strokeColor=none;fillColor=none;spacingLeft=4;fontSize=12;verticalAlign=top;resizable=0;rotatable=0;part=1;html=1;" vertex="1" parent="5tU-Mg-0CsLQWl1p9Fwi-5">
          <mxGeometry y="50" width="230" height="100" as="geometry" />
        </mxCell>
        <mxCell id="5tU-Mg-0CsLQWl1p9Fwi-7" value="&lt;span id=&quot;docs-internal-guid-45b9b341-7fff-9e76-55fe-a9ef9bc05054&quot;&gt;&lt;span style=&quot;font-size: 9pt; font-family: &amp;quot;Century Gothic&amp;quot;, sans-serif; background-color: transparent; font-variant-numeric: normal; font-variant-east-asian: normal; font-variant-alternates: normal; font-variant-position: normal; vertical-align: baseline; white-space-collapse: preserve;&quot;&gt;Usuario&lt;/span&gt;&lt;/span&gt;" style="swimlane;childLayout=stackLayout;horizontal=1;startSize=50;horizontalStack=0;rounded=1;fontSize=14;fontStyle=0;strokeWidth=2;resizeParent=0;resizeLast=1;shadow=0;dashed=0;align=center;arcSize=4;whiteSpace=wrap;html=1;" vertex="1" parent="1">
          <mxGeometry x="40" y="320" width="160" height="160" as="geometry" />
        </mxCell>
        <mxCell id="5tU-Mg-0CsLQWl1p9Fwi-8" value="&lt;b&gt;Usuario_ID&lt;/b&gt;&lt;div&gt;&lt;div&gt;Usuario_Nombre&lt;/div&gt;&lt;/div&gt;&lt;div&gt;&lt;span style=&quot;background-color: initial;&quot;&gt;Usuario_&lt;/span&gt;Apellido_Paterno&lt;/div&gt;&lt;div&gt;&lt;span style=&quot;background-color: initial;&quot;&gt;Usuario_&lt;/span&gt;Apellido_Materno&lt;/div&gt;&lt;div&gt;&lt;span style=&quot;background-color: initial;&quot;&gt;Usuario_&lt;/span&gt;Fecha_Nacimiento&lt;/div&gt;&lt;div&gt;&lt;span style=&quot;background-color: initial;&quot;&gt;Usuario_&lt;/span&gt;Celular&lt;/div&gt;&lt;div&gt;&lt;span style=&quot;background-color: initial;&quot;&gt;Usuario_&lt;/span&gt;Gmail&lt;/div&gt;" style="align=left;strokeColor=none;fillColor=none;spacingLeft=4;fontSize=12;verticalAlign=top;resizable=0;rotatable=0;part=1;html=1;" vertex="1" parent="5tU-Mg-0CsLQWl1p9Fwi-7">
          <mxGeometry y="50" width="160" height="110" as="geometry" />
        </mxCell>
        <mxCell id="5tU-Mg-0CsLQWl1p9Fwi-9" value="&lt;span id=&quot;docs-internal-guid-45b9b341-7fff-9e76-55fe-a9ef9bc05054&quot;&gt;&lt;span style=&quot;font-size: 9pt; font-family: &amp;quot;Century Gothic&amp;quot;, sans-serif; background-color: transparent; font-variant-numeric: normal; font-variant-east-asian: normal; font-variant-alternates: normal; font-variant-position: normal; vertical-align: baseline; white-space-collapse: preserve;&quot;&gt;Auditoria&lt;/span&gt;&lt;/span&gt;" style="swimlane;childLayout=stackLayout;horizontal=1;startSize=50;horizontalStack=0;rounded=1;fontSize=14;fontStyle=0;strokeWidth=2;resizeParent=0;resizeLast=1;shadow=0;dashed=0;align=center;arcSize=4;whiteSpace=wrap;html=1;" vertex="1" parent="1">
          <mxGeometry x="550" y="330" width="230" height="120" as="geometry" />
        </mxCell>
        <mxCell id="5tU-Mg-0CsLQWl1p9Fwi-10" value="&lt;b&gt;Auditoria_ID&lt;br&gt;&lt;/b&gt;&lt;div&gt;&lt;span style=&quot;background-color: initial;&quot;&gt;Auditoria_&lt;/span&gt;Fecha_Creacion&lt;/div&gt;&lt;div&gt;&lt;span style=&quot;background-color: initial;&quot;&gt;Auditoria_&lt;/span&gt;Fecha_Actualizacion&lt;/div&gt;&lt;div&gt;&lt;i&gt;Usuario_ID&lt;/i&gt;&lt;br&gt;&lt;/div&gt;" style="align=left;strokeColor=none;fillColor=none;spacingLeft=4;fontSize=12;verticalAlign=top;resizable=0;rotatable=0;part=1;html=1;" vertex="1" parent="5tU-Mg-0CsLQWl1p9Fwi-9">
          <mxGeometry y="50" width="230" height="70" as="geometry" />
        </mxCell>
        <mxCell id="5tU-Mg-0CsLQWl1p9Fwi-27" value="" style="edgeStyle=entityRelationEdgeStyle;fontSize=12;html=1;endArrow=ERoneToMany;rounded=0;exitX=1;exitY=0.25;exitDx=0;exitDy=0;entryX=0;entryY=0.25;entryDx=0;entryDy=0;" edge="1" parent="1" source="5tU-Mg-0CsLQWl1p9Fwi-8" target="5tU-Mg-0CsLQWl1p9Fwi-2">
          <mxGeometry width="100" height="100" relative="1" as="geometry">
            <mxPoint x="250" y="420" as="sourcePoint" />
            <mxPoint x="350" y="320" as="targetPoint" />
          </mxGeometry>
        </mxCell>
        <mxCell id="5tU-Mg-0CsLQWl1p9Fwi-29" value="" style="edgeStyle=entityRelationEdgeStyle;fontSize=12;html=1;endArrow=ERoneToMany;rounded=0;exitX=1;exitY=0.25;exitDx=0;exitDy=0;entryX=0;entryY=0.25;entryDx=0;entryDy=0;" edge="1" parent="1" source="5tU-Mg-0CsLQWl1p9Fwi-8" target="5tU-Mg-0CsLQWl1p9Fwi-6">
          <mxGeometry width="100" height="100" relative="1" as="geometry">
            <mxPoint x="110" y="230" as="sourcePoint" />
            <mxPoint x="200" y="130" as="targetPoint" />
          </mxGeometry>
        </mxCell>
        <mxCell id="5tU-Mg-0CsLQWl1p9Fwi-30" value="" style="edgeStyle=entityRelationEdgeStyle;fontSize=12;html=1;endArrow=ERoneToMany;rounded=0;entryX=0;entryY=0.25;entryDx=0;entryDy=0;exitX=1;exitY=0.25;exitDx=0;exitDy=0;" edge="1" parent="1" source="5tU-Mg-0CsLQWl1p9Fwi-8" target="5tU-Mg-0CsLQWl1p9Fwi-4">
          <mxGeometry width="100" height="100" relative="1" as="geometry">
            <mxPoint x="110" y="240" as="sourcePoint" />
            <mxPoint x="210" y="140" as="targetPoint" />
          </mxGeometry>
        </mxCell>
        <mxCell id="5tU-Mg-0CsLQWl1p9Fwi-31" value="" style="edgeStyle=entityRelationEdgeStyle;fontSize=12;html=1;endArrow=ERoneToMany;rounded=0;exitX=0;exitY=0.25;exitDx=0;exitDy=0;entryX=1;entryY=0.25;entryDx=0;entryDy=0;" edge="1" parent="1" source="5tU-Mg-0CsLQWl1p9Fwi-10" target="5tU-Mg-0CsLQWl1p9Fwi-2">
          <mxGeometry width="100" height="100" relative="1" as="geometry">
            <mxPoint x="530" y="260" as="sourcePoint" />
            <mxPoint x="630" y="160" as="targetPoint" />
          </mxGeometry>
        </mxCell>
        <mxCell id="5tU-Mg-0CsLQWl1p9Fwi-32" value="" style="edgeStyle=entityRelationEdgeStyle;fontSize=12;html=1;endArrow=ERoneToMany;rounded=0;exitX=0;exitY=0.25;exitDx=0;exitDy=0;entryX=1;entryY=0.25;entryDx=0;entryDy=0;" edge="1" parent="1" source="5tU-Mg-0CsLQWl1p9Fwi-10" target="5tU-Mg-0CsLQWl1p9Fwi-6">
          <mxGeometry width="100" height="100" relative="1" as="geometry">
            <mxPoint x="580" y="238" as="sourcePoint" />
            <mxPoint x="580" y="547.5" as="targetPoint" />
          </mxGeometry>
        </mxCell>
        <mxCell id="5tU-Mg-0CsLQWl1p9Fwi-33" value="" style="edgeStyle=entityRelationEdgeStyle;fontSize=12;html=1;endArrow=ERoneToMany;rounded=0;exitX=0;exitY=0.25;exitDx=0;exitDy=0;entryX=1;entryY=0.25;entryDx=0;entryDy=0;" edge="1" parent="1" source="5tU-Mg-0CsLQWl1p9Fwi-10" target="5tU-Mg-0CsLQWl1p9Fwi-4">
          <mxGeometry width="100" height="100" relative="1" as="geometry">
            <mxPoint x="590" y="248" as="sourcePoint" />
            <mxPoint x="740" y="547.5" as="targetPoint" />
          </mxGeometry>
        </mxCell>
        <mxCell id="PfxFYKxQMQEe7ZatudyH-1" value="" style="edgeStyle=orthogonalEdgeStyle;fontSize=12;html=1;endArrow=ERoneToMany;rounded=0;exitX=0.5;exitY=0;exitDx=0;exitDy=0;entryX=0.5;entryY=0;entryDx=0;entryDy=0;" edge="1" parent="1" source="5tU-Mg-0CsLQWl1p9Fwi-7" target="5tU-Mg-0CsLQWl1p9Fwi-9">
          <mxGeometry width="100" height="100" relative="1" as="geometry">
            <mxPoint x="141" y="310" as="sourcePoint" />
            <mxPoint x="686" y="320" as="targetPoint" />
            <Array as="points">
              <mxPoint x="120" y="120" />
              <mxPoint x="665" y="120" />
            </Array>
          </mxGeometry>
        </mxCell>
      </root>
    </mxGraphModel>
  </diagram>
</mxfile>
